<svg width="438" height="370" viewBox="0 0 438 370" fill="none" xmlns="http://www.w3.org/2000/svg">
<g clip-path="url(#clip0_23_109)">
<path opacity="0.19" d="M92.7127 342.075C93.4934 344.133 91.8825 346.413 89.9122 347.393C87.942 348.372 85.662 348.458 83.5307 349.01C80.216 349.865 77.2978 351.811 74.0884 353.007C69.6832 354.649 64.8877 354.829 60.1852 354.99C45.997 355.48 30.8547 355.722 18.7978 348.223C18.3441 348 17.9762 347.634 17.7507 347.182C17.624 346.733 17.6704 346.253 17.8808 345.837C18.8784 343.538 21.7408 342.838 24.2191 342.447C35.8918 340.625 47.8433 338.977 59.6648 338.561C65.8109 338.357 90.3831 335.915 92.7127 342.075Z" fill="url(#paint0_linear_23_109)"/>
<path opacity="0.18" d="M336.303 343.005C330.932 344.096 325.87 346.333 320.858 348.582L300.752 357.488C311.967 363.524 325.579 361.033 338.317 360.859C339.432 360.859 340.634 360.859 341.52 361.553C342.759 362.526 342.871 364.367 343.645 365.755C345.101 368.383 348.602 368.909 351.594 369.108C378.694 370.874 405.901 370.006 432.833 366.517C434.121 366.35 435.472 366.152 436.513 365.377C439.611 363.065 437.43 357.729 433.923 356.081C430.416 354.433 426.296 354.842 422.573 353.776C418.849 352.71 415.255 348.768 416.996 345.292C401.643 345.593 386.291 345.428 370.938 344.796C359.345 344.3 347.871 340.65 336.303 343.005Z" fill="#1D2741"/>
<path opacity="0.18" d="M410.329 209.051C412.845 182.806 425.614 155.042 412.56 131.313C409.134 125.116 404.22 119.805 398.725 114.865C391.463 108.352 383.192 102.471 375.962 95.908C363.168 84.3068 355.85 70.3816 345.993 57.6401C341.909 52.2588 337.263 47.3289 332.133 42.934C330.093 41.2112 328.028 39.5152 325.938 37.8461C308.8 24.2679 289.513 12.6109 267.58 5.84353C236.478 -3.73121 199.495 -2.1881 173.238 15.2881C163.783 21.5783 156.125 29.5728 148.74 37.8461C142.78 44.5205 137.024 51.3746 130.655 57.6215C124.961 63.2486 118.79 68.4047 111.584 72.5382C101.324 78.4318 89.5152 81.8961 78.6293 86.8476C71.6459 90.0229 65.003 93.8995 58.803 98.4179C50.4813 104.461 43.0393 111.632 36.6905 119.724C22.9174 137.287 15.1356 158.451 15.6622 179.757C15.7428 183.091 16.0154 186.443 16.1207 189.79C16.3244 193.465 16.1103 197.151 15.4826 200.778C14.3302 206.727 11.4987 212.317 8.57434 217.857C4.59669 225.412 0.426971 232.873 0.030445 241.06C-0.663475 255.152 9.77011 267.225 21.3437 277.543C23.2768 279.266 25.247 280.945 27.1925 282.575C30.2903 285.178 33.4811 287.781 36.6967 290.353L37.3163 290.848C39.0387 292.218 40.7673 293.581 42.5207 294.932C46.9196 298.322 51.4239 301.625 56.0397 304.774C58.105 306.174 60.1702 307.535 62.2354 308.858C67.0619 311.956 72.0123 314.788 77.1052 317.373C89.6887 323.768 103.127 328.441 117.588 330.3C157.197 335.258 196.596 317.639 236.546 319.969C262.76 321.494 287.208 331.496 312.611 337.322C338.013 343.147 367.511 344.076 387.994 329.68C406.872 316.437 413.062 293.557 413.111 272.399C413.161 251.242 408.322 230.14 410.329 209.051Z" fill="#3572EF"/>
<path d="M381.582 37.8465H53.8284C51.5819 37.8433 49.3569 38.2826 47.2802 39.1395C45.2035 39.9964 43.3159 41.254 41.7251 42.8406C40.1343 44.4271 38.8715 46.3116 38.0089 48.3863C37.1462 50.461 36.7005 52.6853 36.6972 54.9323V290.855H398.694V54.9571C398.694 50.4191 396.892 46.067 393.684 42.8581C390.476 39.6493 386.125 37.8465 381.588 37.8465H381.582Z" fill="#3572EF"/>
<path opacity="0.47" d="M102.291 252.742C101.672 259.206 95.8725 263.953 89.8998 265.986C86.802 267.039 83.5121 267.628 80.8541 269.549C78.1961 271.47 76.4551 275.356 78.128 278.225C80.1618 278.216 82.1513 278.819 83.8376 279.956C85.5239 281.094 86.8288 282.713 87.5826 284.602C83.7599 290.421 76.988 293.6 70.2346 294.518C63.4813 295.435 56.6041 294.356 49.9127 293.241C47.5645 292.857 45.0614 292.386 43.37 290.663C41.6786 288.94 41.2139 286.436 40.7926 284.063C40.7368 283.728 40.6749 283.394 40.6129 283.053H36.5485V57.6219H58.7354V164.834C58.7354 173.578 58.3389 182.397 58.4752 191.11C58.6115 199.402 64.1257 203.604 69.3796 209.634C70.9967 211.493 72.6757 213.464 73.1528 215.912C73.6671 218.508 72.7377 221.26 73.4254 223.807C74.615 228.232 80.185 229.905 84.46 228.653C88.735 227.402 92.1613 224.179 95.8477 221.613C102.219 217.194 109.697 214.642 117.44 214.245C114.844 225.257 102.074 232.217 101.777 243.564C101.684 246.638 102.589 249.674 102.291 252.742Z" fill="url(#paint1_linear_23_109)"/>
<path d="M20.9291 262.459C15.353 253.442 11.4497 243.31 10.3407 232.768C9.65912 226.342 9.95032 219.562 7.05073 213.786C5.32832 210.353 2.52166 207.403 1.65426 203.654C0.0433706 196.651 5.66289 190.249 10.8239 185.248C11.1335 184.877 11.5483 184.609 12.0135 184.479C12.8189 184.331 13.5438 185 14.0333 185.663C16.9887 189.648 17.2241 194.959 17.98 199.836C18.7916 205.135 20.5264 210.613 24.5598 214.152C28.5932 217.69 34.8075 219.246 36.7964 224.241C38.5621 228.691 36.0281 233.94 37.6204 238.457C39.2127 242.975 44.6587 245.683 45.4766 250.443C46.0218 253.603 44.3242 256.739 44.3737 259.943C44.4109 262.385 45.458 264.684 46.0528 267.058C47.3291 272.152 46.0528 287.069 38.3143 282.706C31.307 278.77 25.0431 269.109 20.9291 262.459Z" fill="#3572EF"/>
<path d="M20.9291 262.459C15.353 253.442 11.4497 243.31 10.3407 232.768C9.65912 226.342 9.95032 219.562 7.05073 213.786C5.32832 210.353 2.52166 207.403 1.65426 203.654C0.0433707 196.651 5.66289 190.249 10.8239 185.248C11.1335 184.877 11.5483 184.609 12.0135 184.479C12.8189 184.331 13.5438 185 14.0333 185.663C16.9887 189.648 17.2241 194.959 17.98 199.836C18.7916 205.135 20.5264 210.613 24.5598 214.152C28.5932 217.69 34.8075 219.246 36.7964 224.241C38.5621 228.691 36.0281 233.94 37.6204 238.457C39.2127 242.975 44.6587 245.683 45.4766 250.443C46.0218 253.603 44.3242 256.739 44.3737 259.943C44.4109 262.385 45.458 264.684 46.0528 267.058C47.3291 272.152 46.0528 287.069 38.3143 282.706C31.307 278.77 25.0431 269.109 20.9291 262.459Z" fill="url(#paint2_linear_23_109)"/>
<path d="M34.9934 252.215C32.9674 241.816 32.8993 230.946 35.613 220.696C37.2549 214.443 39.95 208.209 39.2499 201.782C38.8534 197.958 37.2672 194.203 37.7877 190.398C38.7604 183.277 46.2758 179.243 52.8681 176.417C53.2918 176.184 53.7742 176.081 54.2559 176.119C55.0675 176.268 55.4951 177.148 55.7243 177.941C57.0812 182.713 55.4331 187.745 54.4046 192.598C53.2956 197.841 52.9796 203.579 55.495 208.314C58.0105 213.049 63.2831 216.705 63.376 222.078C63.4565 226.869 59.2311 230.884 59.1257 235.669C59.0204 240.453 63.153 244.915 62.2236 249.662C61.604 252.81 58.9151 255.14 57.8308 258.152C57.0006 260.451 57.1679 262.974 56.8891 265.403C56.2695 270.621 49.8384 284.137 44.1135 277.302C38.9587 271.129 36.4804 259.881 34.9934 252.215Z" fill="#3572EF"/>
<path d="M34.9934 252.215C32.9674 241.816 32.8993 230.946 35.613 220.696C37.2549 214.443 39.95 208.209 39.2499 201.782C38.8534 197.958 37.2672 194.203 37.7877 190.398C38.7604 183.277 46.2758 179.243 52.8681 176.417C53.2918 176.184 53.7742 176.081 54.2559 176.119C55.0675 176.268 55.495 177.148 55.7243 177.941C57.0811 182.713 55.4331 187.745 54.4046 192.598C53.2956 197.841 52.9796 203.579 55.495 208.314C58.0105 213.049 63.2831 216.705 63.376 222.078C63.4565 226.869 59.2311 230.884 59.1257 235.669C59.0204 240.453 63.153 244.915 62.2236 249.662C61.604 252.81 58.9151 255.14 57.8308 258.152C57.0006 260.451 57.1679 262.974 56.8891 265.403C56.2695 270.621 49.8384 284.137 44.1135 277.302C38.9587 271.129 36.4804 259.881 34.9934 252.215Z" fill="url(#paint3_linear_23_109)"/>
<path d="M49.2807 253.944C54.609 244.785 61.7155 236.592 70.4887 230.63C75.8418 227.005 81.9569 224.074 85.6868 218.794C87.9048 215.658 89.1935 211.791 92.0869 209.268C97.5082 204.552 105.804 206.492 112.644 208.698C113.117 208.799 113.548 209.038 113.883 209.386C114.398 210.006 114.144 210.979 113.791 211.729C111.672 216.209 107.112 218.905 103.146 221.88C98.8526 225.09 94.8378 229.199 93.6111 234.417C92.3843 239.635 93.9394 245.863 90.4636 249.966C87.3658 253.622 81.548 253.851 78.3139 257.402C75.0797 260.953 75.2532 267.014 71.4366 269.977C68.9026 271.941 65.34 271.923 62.5396 273.472C60.402 274.655 58.8655 276.657 57.0501 278.299C53.1592 281.826 39.4109 287.744 39.6092 278.832C39.7765 270.807 45.3464 260.699 49.2807 253.944Z" fill="#3572EF"/>
<path d="M49.2807 253.944C54.609 244.785 61.7155 236.592 70.4887 230.63C75.8418 227.005 81.9569 224.074 85.6868 218.794C87.9048 215.658 89.1935 211.791 92.0869 209.268C97.5082 204.552 105.804 206.492 112.644 208.698C113.117 208.799 113.548 209.038 113.883 209.386C114.398 210.006 114.144 210.979 113.791 211.729C111.672 216.209 107.112 218.905 103.146 221.88C98.8527 225.09 94.8378 229.199 93.6111 234.417C92.3843 239.635 93.9395 245.863 90.4637 249.966C87.3658 253.622 81.548 253.851 78.3139 257.402C75.0797 260.953 75.2532 267.014 71.4366 269.977C68.9026 271.941 65.34 271.923 62.5396 273.472C60.402 274.656 58.8655 276.657 57.0501 278.299C53.1592 281.826 39.4109 287.744 39.6092 278.832C39.7765 270.807 45.3464 260.699 49.2807 253.944Z" fill="url(#paint4_linear_23_109)"/>
<path d="M82.5393 286.164L81.7091 290.855L80.9966 294.939L79.299 304.78L78.6236 308.864L76.9136 318.712L76.2011 322.789L71.9508 347.256H27.7568L23.4694 322.789L22.7569 318.712L21.0592 308.864L20.3405 304.78L18.5809 294.939L17.8808 290.855L17.063 286.17C16.8786 285.119 16.903 284.043 17.1349 283.001C17.3667 281.96 17.8015 280.975 18.4143 280.102C19.0271 279.228 19.8059 278.485 20.7063 277.913C21.6066 277.341 22.6108 276.952 23.6614 276.769C24.1258 276.687 24.5964 276.646 25.0679 276.645H74.5345C75.7194 276.643 76.8902 276.901 77.9646 277.401C79.039 277.901 79.9907 278.63 80.7528 279.538C81.5148 280.445 82.0686 281.509 82.3751 282.654C82.6817 283.799 82.7335 284.997 82.5269 286.164H82.5393Z" fill="#3572EF"/>
<path d="M82.5393 286.164L81.7091 290.855L80.9966 294.939L79.299 304.78L78.6236 308.864L76.9136 318.712L76.2011 322.789L71.9508 347.256H27.7568L23.4694 322.789L22.7569 318.712L21.0592 308.864L20.3405 304.78L18.5809 294.939L17.8808 290.855L17.063 286.17C16.8786 285.119 16.903 284.042 17.1349 283.001C17.3667 281.96 17.8015 280.975 18.4143 280.102C19.0271 279.228 19.8059 278.485 20.7063 277.913C21.6066 277.341 22.6108 276.952 23.6614 276.769C24.1258 276.687 24.5964 276.646 25.0679 276.645H74.5345C75.7193 276.643 76.8902 276.901 77.9646 277.401C79.039 277.901 79.9907 278.63 80.7527 279.538C81.5148 280.445 82.0686 281.509 82.3751 282.654C82.6816 283.799 82.7335 284.997 82.5269 286.164H82.5393Z" fill="url(#paint5_linear_23_109)"/>
<path d="M398.694 54.9571V57.622H36.6972V54.9571C36.6972 50.4191 38.4995 46.067 41.7076 42.8581C44.9156 39.6493 49.2667 37.8466 53.8036 37.8466H381.557C383.803 37.8457 386.028 38.2875 388.104 39.1467C390.18 40.0058 392.066 41.2655 393.655 42.8537C395.244 44.442 396.505 46.3278 397.365 48.4035C398.225 50.4791 398.669 52.7039 398.67 54.9509L398.694 54.9571Z" fill="url(#paint6_linear_23_109)"/>
<path d="M54.9932 50.8236C57.1044 50.8236 58.8159 49.1116 58.8159 46.9999C58.8159 44.8881 57.1044 43.1762 54.9932 43.1762C52.8819 43.1762 51.1704 44.8881 51.1704 46.9999C51.1704 49.1116 52.8819 50.8236 54.9932 50.8236Z" fill="url(#paint7_linear_23_109)"/>
<path d="M67.8245 50.8236C69.9358 50.8236 71.6473 49.1116 71.6473 46.9999C71.6473 44.8881 69.9358 43.1762 67.8245 43.1762C65.7133 43.1762 64.0018 44.8881 64.0018 46.9999C64.0018 49.1116 65.7133 50.8236 67.8245 50.8236Z" fill="url(#paint8_linear_23_109)"/>
<path d="M80.6497 50.8236C82.7609 50.8236 84.4724 49.1116 84.4724 46.9999C84.4724 44.8881 82.7609 43.1762 80.6497 43.1762C78.5384 43.1762 76.8269 44.8881 76.8269 46.9999C76.8269 49.1116 78.5384 50.8236 80.6497 50.8236Z" fill="url(#paint9_linear_23_109)"/>
<path d="M258.479 140.696V211.481C258.476 213.881 257.521 216.181 255.824 217.877C254.127 219.574 251.826 220.527 249.427 220.529H178.666C176.267 220.527 173.966 219.574 172.269 217.877C170.572 216.181 169.617 213.881 169.614 211.481V140.696C169.614 138.296 170.567 135.995 172.263 134.298C173.96 132.601 176.261 131.648 178.66 131.648H249.427C251.822 131.646 254.12 132.595 255.817 134.285C257.513 135.975 258.471 138.27 258.479 140.665V140.696Z" fill="url(#paint10_linear_23_109)"/>
<path d="M221.28 167.648C221.316 168.955 220.999 170.247 220.361 171.388C219.722 172.529 218.788 173.477 217.656 174.13C217.368 174.296 217.13 174.536 216.967 174.824C216.804 175.113 216.72 175.441 216.726 175.772V191.265C216.726 191.837 216.499 192.386 216.095 192.79C215.69 193.195 215.142 193.422 214.57 193.422H213.517C212.945 193.422 212.397 193.195 211.992 192.79C211.588 192.386 211.361 191.837 211.361 191.265V175.772C211.364 175.44 211.279 175.113 211.116 174.824C210.953 174.535 210.717 174.293 210.431 174.124C209.338 173.493 208.429 172.588 207.794 171.498C207.159 170.407 206.819 169.17 206.81 167.908C206.8 166.646 207.121 165.403 207.74 164.303C208.359 163.203 209.254 162.285 210.338 161.638C211.421 160.991 212.655 160.639 213.916 160.616C215.178 160.593 216.423 160.901 217.529 161.509C218.635 162.116 219.563 163.002 220.221 164.079C220.879 165.156 221.244 166.386 221.28 167.648ZM81.7277 290.855L81.0152 294.939H18.5995L17.887 290.855H81.7277ZM79.299 304.78L78.5926 308.864H21.0406L20.3219 304.78H79.299ZM76.8826 318.712L76.1701 322.789H23.4694L22.7569 318.712H76.8826Z" fill="#3572EF"/>
<path opacity="0.18" d="M306.199 189.567C303.293 185.496 298.9 182.664 294.222 180.891C293.157 180.488 291.955 180.141 290.914 180.594C290.183 180.997 289.57 181.585 289.135 182.298C286.88 185.397 284.532 188.743 284.315 192.573C283.993 198.398 288.609 204.602 285.647 209.628C284.823 211.028 283.51 212.07 282.549 213.383C280.74 215.862 280.325 219.11 280.567 222.171C280.858 225.846 281.329 230.76 277.859 232.012C276.817 232.318 275.712 232.333 274.662 232.056C271.62 231.436 268.807 229.98 265.827 229.112C262.847 228.244 259.408 228.04 256.819 229.732C256.589 233.041 259.433 235.799 262.426 237.23C265.418 238.662 268.789 239.313 271.533 241.178C275.685 243.992 277.729 249.234 277.599 254.273C277.469 259.311 275.499 264.083 272.983 268.427C271.812 270.448 270.505 272.462 270.022 274.748C269.074 279.31 271.626 283.79 274.074 287.763C274.792 288.922 275.579 290.149 276.831 290.694C277.891 291.054 279.023 291.146 280.127 290.96L323.584 287.242C324.823 287.137 326.266 286.889 326.799 285.767C327.035 285.078 327.035 284.33 326.799 283.641C325.38 277.556 320.913 272.548 319.327 266.5C318.596 263.68 318.516 260.736 318.435 257.824C318.113 245.814 317.71 233.686 315.151 221.88C313.869 215.999 310.709 210.502 309.457 204.769C308.293 199.421 309.891 194.736 306.199 189.567Z" fill="#1D2741"/>
<path d="M238.002 131.648H230.313V121.317C230.303 117.003 228.579 112.869 225.521 109.826C222.464 106.783 218.323 105.079 214.009 105.09C209.696 105.1 205.563 106.825 202.521 109.883C199.478 112.941 197.775 117.083 197.786 121.398V131.648H190.091V121.113C190.251 114.852 192.854 108.903 197.343 104.539C201.833 100.174 207.852 97.7409 214.113 97.7596C220.374 97.7782 226.378 100.247 230.842 104.639C235.306 109.03 237.874 114.994 237.996 121.255L238.002 131.648Z" fill="url(#paint11_linear_23_109)"/>
<path d="M398.639 338.357L405.126 344.554L395.789 353.887L384.06 354.897C383.715 353.904 383.742 352.82 384.136 351.845C384.53 350.87 385.265 350.072 386.204 349.599C388.36 348.433 390.709 347.665 393.137 347.33L392.883 342.534L398.639 338.357ZM326.539 337.88L327.493 345.701L305.523 355.542C305.523 355.542 302.778 351.297 305.591 347.609C308.404 343.922 316.161 341.332 316.161 341.332L317.53 337.929L326.539 337.88Z" fill="#3F3D56"/>
<path d="M332.134 217.25C332.134 217.25 324.178 223.132 323.342 232.26C322.506 241.389 322.103 244.593 322.103 244.593L308.163 243.465L307.977 251.174C307.977 251.174 326.471 257.935 329.309 256.783C332.146 255.63 335.696 250.542 335.696 250.542L332.134 217.25Z" fill="#3572EF"/>
<path d="M332.134 217.25C332.134 217.25 324.178 223.132 323.342 232.26C322.506 241.389 322.103 244.593 322.103 244.593L308.163 243.465L307.977 251.174C307.977 251.174 326.471 257.935 329.309 256.783C332.146 255.63 335.696 250.542 335.696 250.542L332.134 217.25Z" fill="url(#paint12_linear_23_109)"/>
<path d="M337.487 265.905C337.487 265.905 308.367 289.938 308.132 298.131C307.896 306.323 315.288 338.357 315.288 338.357L326.576 338.295L326.905 304.619C326.905 304.619 350.721 296.302 353.311 291.277C355.901 286.251 361.39 261.734 337.487 265.905Z" fill="#3572EF"/>
<path d="M337.487 265.905C337.487 265.905 308.367 289.938 308.132 298.131C307.896 306.323 315.288 338.357 315.288 338.357L326.576 338.295L326.905 304.619C326.905 304.619 350.721 296.302 353.311 291.277C355.901 286.251 361.39 261.734 337.487 265.905Z" fill="url(#paint13_linear_23_109)"/>
<path d="M337.487 265.905C337.487 265.905 339.265 302.555 350.721 314.405C362.177 326.254 391.495 344.034 391.495 344.034L399.816 338.871L371.669 309.484C371.669 309.484 375.739 276.496 370.925 270.714C366.111 264.932 337.487 265.905 337.487 265.905Z" fill="#3572EF"/>
<path d="M337.487 265.905C337.487 265.905 339.265 302.555 350.721 314.405C362.177 326.254 391.495 344.034 391.495 344.034L399.816 338.871L371.669 309.484C371.669 309.484 375.739 276.496 370.925 270.714C366.111 264.932 337.487 265.905 337.487 265.905Z" fill="url(#paint14_linear_23_109)"/>
<path d="M337.487 265.905L327.537 223.795C327.537 223.795 333.113 207.738 355.213 212.906C377.313 218.075 370.907 270.714 370.907 270.714C370.907 270.714 346.099 278.944 337.487 265.905Z" fill="#3572EF"/>
<path d="M337.487 265.905L327.537 223.795C327.537 223.795 333.113 207.738 355.213 212.906C377.313 218.075 370.907 270.714 370.907 270.714C370.907 270.714 346.099 278.944 337.487 265.905Z" fill="url(#paint15_linear_23_109)"/>
<path d="M354.463 219.37C354.463 219.37 353.137 212.361 360.25 214.232C367.363 216.104 378.434 240.261 378.025 243.62C377.617 246.979 343.013 248.361 343.013 248.361L342.189 240.304L360.38 237.261C360.38 237.261 353.701 225.821 354.463 219.37Z" fill="#3572EF"/>
<path d="M354.463 219.37C354.463 219.37 353.137 212.361 360.25 214.232C367.363 216.104 378.434 240.261 378.025 243.62C377.617 246.979 343.013 248.361 343.013 248.361L342.189 240.304L360.38 237.261C360.38 237.261 353.701 225.821 354.463 219.37Z" fill="url(#paint16_linear_23_109)"/>
<path d="M351.068 204.422C350.215 206.186 348.764 207.589 346.973 208.382C346.672 208.485 346.38 208.612 346.099 208.76C345.973 208.84 345.859 208.935 345.758 209.045C345.139 209.739 345.572 210.768 345.758 211.661C346.105 213.693 344.928 215.776 343.23 216.941C342.277 217.553 341.231 218.007 340.132 218.285C338.59 218.688 336.929 218.781 335.758 218.23C333.9 217.356 334.085 214.511 333.676 212.77C332.326 207.118 331.142 201.324 331.756 195.48C332.084 192.381 332.952 189.22 334.816 186.704C336.681 184.188 339.649 182.366 342.784 182.422C345.919 182.478 348.893 184.455 351.13 186.76C351.912 187.529 352.572 188.413 353.088 189.381C354.537 192.288 353.769 195.765 352.964 198.913C352.554 200.818 351.917 202.668 351.068 204.422Z" fill="url(#paint17_linear_23_109)"/>
<path d="M353.559 190.714C353.559 190.714 344.265 190.714 338.646 193.986C333.633 196.893 332.252 203.102 331.83 202.997C330.882 202.78 327.791 196.8 329.092 195.48C330.393 194.16 329.364 194.153 329.364 194.153C329.364 194.153 327.871 191.674 328.621 187.225C329.235 183.974 330.076 180.771 331.136 177.638C331.136 177.638 331.527 176.163 337.152 177.638C342.778 179.113 352.264 183.618 352.79 185.446C353.317 187.274 352.883 188.111 352.883 188.111C352.883 188.111 354.426 189.245 353.559 190.714Z" fill="#3572EF"/>
<path d="M353.559 190.714C353.559 190.714 344.265 190.714 338.646 193.986C333.633 196.893 332.252 203.102 331.83 202.997C330.882 202.78 327.791 196.8 329.092 195.48C330.393 194.16 329.364 194.153 329.364 194.153C329.364 194.153 327.871 191.674 328.621 187.225C329.235 183.974 330.076 180.771 331.136 177.638C331.136 177.638 331.527 176.163 337.152 177.638C342.778 179.113 352.264 183.618 352.79 185.446C353.317 187.274 352.883 188.111 352.883 188.111C352.883 188.111 354.426 189.245 353.559 190.714Z" fill="url(#paint18_linear_23_109)"/>
<path d="M338.645 193.961C341.906 194.75 345.219 195.305 348.559 195.622C351.557 195.814 353.72 195.002 353.738 194.86C353.775 194.544 352.766 199.892 352.766 199.892L350.492 200.691C349.614 201.002 348.679 201.112 347.753 201.014L333.571 199.539C333.571 199.539 335.988 195.201 338.645 193.961Z" fill="#3572EF"/>
<path d="M338.645 193.961C341.906 194.75 345.219 195.305 348.559 195.622C351.557 195.814 353.72 195.002 353.738 194.86C353.775 194.544 352.766 199.892 352.766 199.892L350.492 200.691C349.614 201.002 348.679 201.112 347.753 201.014L333.571 199.539C333.571 199.539 335.988 195.201 338.645 193.961Z" fill="url(#paint19_linear_23_109)"/>
<path d="M344.476 196.713C344.883 196.601 345.315 196.614 345.715 196.75C345.988 196.799 346.235 196.942 346.415 197.153C346.518 197.313 346.59 197.492 346.626 197.68C346.663 197.786 346.663 197.902 346.626 198.008C346.573 198.069 346.505 198.115 346.429 198.14C346.352 198.165 346.27 198.169 346.192 198.151C345.453 198.155 344.72 198.014 344.036 197.735C343.478 197.444 344.005 196.88 344.476 196.713ZM351.018 197.016C351.135 196.912 351.271 196.832 351.419 196.782C351.567 196.732 351.724 196.713 351.88 196.725C351.981 196.719 352.082 196.734 352.177 196.77C352.272 196.805 352.358 196.859 352.431 196.93C352.535 197.066 352.617 197.219 352.673 197.382C352.722 197.482 352.743 197.593 352.735 197.704C352.72 197.768 352.687 197.825 352.64 197.87C352.592 197.914 352.532 197.943 352.468 197.952C351.974 198.148 351.436 198.202 350.913 198.107C350.467 197.977 350.721 197.295 351.018 197.016Z" fill="white"/>
<path d="M343.199 216.941C342.246 217.553 341.2 218.007 340.101 218.285C339.18 217.242 338.589 215.947 338.404 214.567C338.223 213.61 338.113 212.64 338.075 211.667C337.962 210.821 338.169 209.962 338.658 209.262C338.981 208.962 339.368 208.741 339.791 208.617C340.213 208.492 340.659 208.467 341.093 208.543C341.966 208.642 342.809 208.946 343.683 209.039C344.426 209.12 345.318 208.779 346.099 208.735C345.973 208.815 345.859 208.911 345.758 209.021C345.139 209.715 345.572 210.743 345.758 211.636C346.074 213.693 344.897 215.776 343.199 216.941Z" fill="url(#paint20_linear_23_109)"/>
<path d="M303.348 239.585C302.99 239.301 302.562 239.115 302.109 239.046C301.884 239.018 301.656 239.074 301.468 239.203C301.281 239.332 301.148 239.526 301.093 239.746C301.093 240.062 301.2 240.368 301.397 240.614L302.233 241.922C302.338 242.057 302.401 242.221 302.413 242.393C302.413 242.826 301.793 242.913 301.353 242.857C298.627 242.51 295.907 241.668 293.188 242.027C292.978 242.033 292.778 242.114 292.624 242.256C292.545 242.374 292.509 242.515 292.521 242.656C292.534 242.797 292.594 242.929 292.692 243.031C292.897 243.229 293.148 243.372 293.423 243.446C294.946 244.004 296.51 244.444 298.101 244.76C297.921 245.206 297.332 245.287 296.862 245.305C295.545 245.355 294.234 245.504 292.94 245.752C292.202 245.888 291.298 246.26 291.292 246.991C291.313 247.235 291.409 247.467 291.568 247.653C291.727 247.84 291.94 247.972 292.178 248.032C292.657 248.145 293.154 248.161 293.64 248.082C295.345 247.939 297.061 247.983 298.757 248.212C296.924 248.422 295.182 249.129 293.72 250.257C293.587 250.35 293.476 250.473 293.398 250.616C293.231 250.976 293.547 251.41 293.925 251.534C294.316 251.614 294.722 251.59 295.102 251.465C296.796 251.072 298.525 250.848 300.263 250.796C299.215 251.279 298.24 251.905 297.363 252.655C297.098 252.86 296.885 253.126 296.744 253.43C296.672 253.584 296.649 253.756 296.678 253.923C296.706 254.09 296.786 254.245 296.905 254.366C297.063 254.463 297.242 254.522 297.427 254.537C297.613 254.552 297.799 254.523 297.971 254.452C300.034 253.895 301.855 252.556 303.968 252.246C305.071 252.079 306.347 252.147 307.115 251.335C307.444 250.934 307.673 250.46 307.785 249.953C308.243 248.361 309.191 244.995 308.231 243.446C307.853 242.826 306.936 242.318 306.372 241.86C305.405 241.049 304.395 240.29 303.348 239.585ZM337.877 237.044C337.518 236.76 337.091 236.574 336.638 236.505C336.412 236.477 336.184 236.533 335.997 236.662C335.81 236.791 335.676 236.985 335.622 237.206C335.621 237.521 335.728 237.827 335.926 238.073L336.762 239.381C336.867 239.517 336.93 239.68 336.942 239.852C336.911 240.286 336.322 240.372 335.882 240.317C333.156 239.97 330.436 239.121 327.716 239.486C327.507 239.49 327.307 239.569 327.152 239.709C327.072 239.827 327.035 239.97 327.047 240.112C327.06 240.254 327.121 240.388 327.221 240.49C327.425 240.688 327.677 240.831 327.952 240.905C329.475 241.463 331.039 241.903 332.629 242.219C332.45 242.665 331.861 242.74 331.39 242.758C330.074 242.813 328.763 242.964 327.468 243.211C326.731 243.347 325.827 243.713 325.82 244.45C325.841 244.694 325.938 244.926 326.097 245.112C326.256 245.299 326.469 245.432 326.706 245.491C327.186 245.604 327.683 245.621 328.169 245.541C329.874 245.398 331.59 245.442 333.286 245.671C331.454 245.881 329.715 246.589 328.255 247.716C328.12 247.807 328.008 247.928 327.927 248.069C327.901 248.164 327.893 248.262 327.905 248.36C327.917 248.457 327.948 248.551 327.996 248.636C328.045 248.721 328.11 248.796 328.187 248.856C328.264 248.916 328.353 248.961 328.447 248.987C328.838 249.072 329.245 249.05 329.625 248.925C331.318 248.528 333.047 248.304 334.786 248.255C333.738 248.738 332.762 249.364 331.886 250.114C331.62 250.319 331.408 250.585 331.266 250.889C331.196 251.043 331.174 251.215 331.203 251.382C331.231 251.549 331.31 251.703 331.427 251.825C331.587 251.922 331.767 251.981 331.953 251.996C332.139 252.011 332.326 251.982 332.499 251.912C334.556 251.354 336.378 250.015 338.491 249.705C339.593 249.538 340.87 249.606 341.638 248.794C341.966 248.393 342.196 247.919 342.307 247.412C342.772 245.82 343.714 242.455 342.753 240.899C342.375 240.279 341.458 239.777 340.895 239.319C339.929 238.508 338.922 237.749 337.877 237.044Z" fill="#3572EF"/>
<path d="M303.348 239.585C302.99 239.301 302.562 239.115 302.109 239.046C301.884 239.018 301.656 239.074 301.468 239.203C301.281 239.332 301.148 239.526 301.093 239.746C301.093 240.062 301.2 240.368 301.397 240.614L302.233 241.922C302.338 242.057 302.401 242.221 302.413 242.393C302.413 242.826 301.793 242.913 301.353 242.857C298.627 242.51 295.907 241.668 293.188 242.027C292.978 242.033 292.778 242.114 292.624 242.256C292.545 242.374 292.509 242.515 292.521 242.656C292.534 242.797 292.594 242.929 292.692 243.031C292.897 243.229 293.148 243.372 293.423 243.446C294.946 244.004 296.51 244.444 298.101 244.76C297.921 245.206 297.332 245.287 296.862 245.305C295.545 245.355 294.234 245.504 292.94 245.752C292.202 245.888 291.298 246.26 291.292 246.991C291.313 247.235 291.409 247.467 291.568 247.653C291.727 247.84 291.94 247.972 292.178 248.032C292.657 248.145 293.154 248.161 293.64 248.082C295.345 247.939 297.061 247.983 298.757 248.212C296.924 248.422 295.182 249.13 293.72 250.257C293.587 250.35 293.476 250.473 293.398 250.616C293.231 250.976 293.547 251.41 293.925 251.534C294.316 251.614 294.722 251.59 295.102 251.465C296.796 251.072 298.525 250.848 300.263 250.796C299.215 251.279 298.24 251.905 297.363 252.655C297.098 252.86 296.885 253.126 296.744 253.43C296.672 253.584 296.649 253.756 296.677 253.923C296.706 254.09 296.786 254.245 296.905 254.366C297.063 254.463 297.242 254.522 297.427 254.537C297.613 254.552 297.799 254.523 297.971 254.453C300.034 253.895 301.855 252.556 303.968 252.246C305.071 252.079 306.347 252.147 307.115 251.335C307.444 250.934 307.673 250.46 307.785 249.953C308.243 248.361 309.191 244.996 308.231 243.446C307.853 242.826 306.936 242.318 306.372 241.86C305.405 241.049 304.395 240.29 303.348 239.585Z" fill="url(#paint21_linear_23_109)"/>
<path d="M337.877 237.044C337.518 236.76 337.091 236.574 336.638 236.505C336.412 236.477 336.184 236.533 335.997 236.662C335.81 236.791 335.676 236.985 335.622 237.206C335.621 237.521 335.728 237.827 335.926 238.073L336.762 239.381C336.867 239.517 336.93 239.68 336.942 239.852C336.911 240.286 336.322 240.372 335.882 240.317C333.156 239.97 330.436 239.121 327.716 239.486C327.507 239.49 327.307 239.569 327.152 239.709C327.072 239.827 327.035 239.97 327.047 240.112C327.06 240.254 327.121 240.388 327.221 240.49C327.425 240.688 327.677 240.831 327.952 240.905C329.475 241.463 331.039 241.903 332.629 242.219C332.45 242.665 331.861 242.74 331.39 242.758C330.074 242.813 328.763 242.964 327.468 243.211C326.731 243.347 325.827 243.713 325.82 244.45C325.841 244.694 325.938 244.926 326.097 245.113C326.256 245.299 326.469 245.432 326.706 245.491C327.186 245.604 327.683 245.621 328.168 245.541C329.874 245.398 331.59 245.442 333.286 245.671C331.454 245.881 329.715 246.589 328.255 247.716C328.12 247.807 328.008 247.928 327.927 248.069C327.901 248.164 327.893 248.262 327.905 248.36C327.917 248.457 327.948 248.551 327.996 248.636C328.045 248.721 328.11 248.796 328.187 248.856C328.264 248.916 328.353 248.961 328.447 248.987C328.838 249.072 329.245 249.05 329.624 248.925C331.318 248.528 333.047 248.304 334.785 248.255C333.738 248.738 332.762 249.364 331.886 250.114C331.62 250.319 331.408 250.585 331.266 250.889C331.196 251.043 331.174 251.215 331.203 251.382C331.231 251.549 331.31 251.703 331.427 251.825C331.587 251.922 331.767 251.981 331.953 251.996C332.139 252.011 332.326 251.982 332.499 251.912C334.556 251.354 336.378 250.015 338.491 249.705C339.593 249.538 340.87 249.606 341.638 248.794C341.966 248.393 342.196 247.919 342.307 247.412C342.772 245.82 343.714 242.455 342.753 240.899C342.375 240.279 341.458 239.777 340.894 239.319C339.929 238.508 338.922 237.749 337.877 237.044Z" fill="url(#paint22_linear_23_109)"/>
</g>
<defs>
<linearGradient id="paint0_linear_23_109" x1="17.6826" y1="346.556" x2="92.911" y2="346.556" gradientUnits="userSpaceOnUse">
<stop stop-color="#183866"/>
<stop offset="1" stop-color="#1A7FC1"/>
</linearGradient>
<linearGradient id="paint1_linear_23_109" x1="169.013" y1="170.796" x2="-300.908" y2="192.507" gradientUnits="userSpaceOnUse">
<stop stop-opacity="0"/>
<stop offset="0.97" stop-color="#0C0C11"/>
<stop offset="0.98" stop-color="#312F43"/>
<stop offset="0.99" stop-color="#3F3D56"/>
</linearGradient>
<linearGradient id="paint2_linear_23_109" x1="-7.34812" y1="239.275" x2="205.521" y2="206.13" gradientUnits="userSpaceOnUse">
<stop stop-opacity="0"/>
<stop offset="0.97" stop-color="#0C0C11"/>
<stop offset="0.98" stop-color="#312F43"/>
<stop offset="0.99" stop-color="#3F3D56"/>
</linearGradient>
<linearGradient id="paint3_linear_23_109" x1="13.2898" y1="229.911" x2="163.666" y2="220.862" gradientUnits="userSpaceOnUse">
<stop stop-opacity="0"/>
<stop offset="0.29" stop-opacity="0.29"/>
<stop offset="0.97" stop-color="#0C0C11"/>
<stop offset="0.98" stop-color="#312F43"/>
<stop offset="0.99" stop-color="#3F3D56"/>
</linearGradient>
<linearGradient id="paint4_linear_23_109" x1="131.783" y1="321.327" x2="51.5534" y2="210.266" gradientUnits="userSpaceOnUse">
<stop stop-opacity="0"/>
<stop offset="0.84" stop-opacity="0.66"/>
<stop offset="0.97"/>
</linearGradient>
<linearGradient id="paint5_linear_23_109" x1="99.8564" y1="307.879" x2="2.91788" y2="315.535" gradientUnits="userSpaceOnUse">
<stop stop-opacity="0"/>
<stop offset="0.87" stop-opacity="0.66"/>
<stop offset="1"/>
</linearGradient>
<linearGradient id="paint6_linear_23_109" x1="216.856" y1="-14.328" x2="222.001" y2="417.867" gradientUnits="userSpaceOnUse">
<stop stop-opacity="0"/>
<stop offset="0.5" stop-opacity="0.38"/>
<stop offset="0.97" stop-color="#0C0C11"/>
<stop offset="0.98" stop-color="#312F43"/>
<stop offset="0.99" stop-color="#3F3D56"/>
</linearGradient>
<linearGradient id="paint7_linear_23_109" x1="56.6041" y1="36.7372" x2="53.8704" y2="54.0769" gradientUnits="userSpaceOnUse">
<stop stop-color="#183866"/>
<stop offset="1" stop-color="#1A7FC1"/>
</linearGradient>
<linearGradient id="paint8_linear_23_109" x1="69.4354" y1="36.7434" x2="66.7018" y2="54.0831" gradientUnits="userSpaceOnUse">
<stop stop-color="#183866"/>
<stop offset="1" stop-color="#1A7FC1"/>
</linearGradient>
<linearGradient id="paint9_linear_23_109" x1="82.2667" y1="36.7496" x2="79.5331" y2="54.0893" gradientUnits="userSpaceOnUse">
<stop stop-color="#183866"/>
<stop offset="1" stop-color="#1A7FC1"/>
</linearGradient>
<linearGradient id="paint10_linear_23_109" x1="234.948" y1="43.3435" x2="199.572" y2="267.898" gradientUnits="userSpaceOnUse">
<stop offset="0.01"/>
<stop offset="0.99" stop-opacity="0"/>
</linearGradient>
<linearGradient id="paint11_linear_23_109" x1="214.558" y1="93.882" x2="213.733" y2="146.583" gradientUnits="userSpaceOnUse">
<stop offset="0.01"/>
<stop offset="0.99" stop-opacity="0"/>
</linearGradient>
<linearGradient id="paint12_linear_23_109" x1="314.755" y1="229.069" x2="390.014" y2="302.047" gradientUnits="userSpaceOnUse">
<stop offset="0.01"/>
<stop offset="0.15" stop-opacity="0.52"/>
<stop offset="0.99" stop-opacity="0"/>
</linearGradient>
<linearGradient id="paint13_linear_23_109" x1="337.097" y1="306.423" x2="250.116" y2="232.69" gradientUnits="userSpaceOnUse">
<stop offset="0.01"/>
<stop offset="0.16" stop-opacity="0.52"/>
<stop offset="1" stop-opacity="0"/>
</linearGradient>
<linearGradient id="paint14_linear_23_109" x1="340.678" y1="311.027" x2="471.504" y2="277.763" gradientUnits="userSpaceOnUse">
<stop offset="0.01"/>
<stop offset="0.15" stop-opacity="0.52"/>
<stop offset="0.99" stop-opacity="0"/>
</linearGradient>
<linearGradient id="paint15_linear_23_109" x1="330.665" y1="257.328" x2="431.639" y2="191.92" gradientUnits="userSpaceOnUse">
<stop offset="0.01"/>
<stop offset="0.15" stop-opacity="0.52"/>
<stop offset="0.99" stop-opacity="0"/>
</linearGradient>
<linearGradient id="paint16_linear_23_109" x1="343.106" y1="228.796" x2="433.474" y2="255.259" gradientUnits="userSpaceOnUse">
<stop offset="0.01"/>
<stop offset="0.15" stop-opacity="0.52"/>
<stop offset="0.99" stop-opacity="0"/>
</linearGradient>
<linearGradient id="paint17_linear_23_109" x1="331.366" y1="200.11" x2="352.407" y2="205.532" gradientUnits="userSpaceOnUse">
<stop stop-color="#ECC4D7"/>
<stop offset="0.42" stop-color="#EFD4D1"/>
<stop offset="1" stop-color="#F2EAC9"/>
</linearGradient>
<linearGradient id="paint18_linear_23_109" x1="329.693" y1="190.869" x2="399.045" y2="164.982" gradientUnits="userSpaceOnUse">
<stop offset="0.01"/>
<stop offset="0.03" stop-opacity="0.93"/>
<stop offset="0.51" stop-opacity="0.05"/>
<stop offset="0.58" stop-opacity="0.03"/>
<stop offset="0.99" stop-opacity="0"/>
</linearGradient>
<linearGradient id="paint19_linear_23_109" x1="336.211" y1="198.002" x2="383.608" y2="194.824" gradientUnits="userSpaceOnUse">
<stop offset="0.01"/>
<stop offset="0.15" stop-opacity="0.52"/>
<stop offset="0.99" stop-opacity="0"/>
</linearGradient>
<linearGradient id="paint20_linear_23_109" x1="336.895" y1="210.215" x2="359.594" y2="227.895" gradientUnits="userSpaceOnUse">
<stop stop-color="#ECC4D7"/>
<stop offset="0.42" stop-color="#EFD4D1"/>
<stop offset="1" stop-color="#F2EAC9"/>
</linearGradient>
<linearGradient id="paint21_linear_23_109" x1="300.3" y1="235.749" x2="295.372" y2="391.486" gradientUnits="userSpaceOnUse">
<stop offset="0.01"/>
<stop offset="0.15" stop-opacity="0.52"/>
<stop offset="0.99" stop-opacity="0"/>
</linearGradient>
<linearGradient id="paint22_linear_23_109" x1="334.736" y1="236.109" x2="329.808" y2="391.845" gradientUnits="userSpaceOnUse">
<stop offset="0.01"/>
<stop offset="0.15" stop-opacity="0.52"/>
<stop offset="0.99" stop-opacity="0"/>
</linearGradient>
<clipPath id="clip0_23_109">
<rect width="438" height="370" fill="white"/>
</clipPath>
</defs>
</svg>
